<?xml version="1.0" encoding="utf-8"?>
<!-- Generator: Adobe Illustrator 27.5.0, SVG Export Plug-In . SVG Version: 6.00 Build 0)  -->
<svg version="1.1" xmlns="http://www.w3.org/2000/svg" xmlns:xlink="http://www.w3.org/1999/xlink" x="0px" y="0px"
	 viewBox="0 0 500 500" style="enable-background:new 0 0 500 500;" xml:space="preserve">
<g id="BACKGROUND">
	<rect style="fill:#FFFFFF;" width="500" height="500"/>
	<rect style="fill:#FFFFFF;" width="500" height="500"/>
</g>
<g id="OBJECTS">
	<g>
		<g>
			<ellipse style="fill:#C7D9FF;" cx="248.95" cy="437.037" rx="237.363" ry="30.932"/>
		</g>
		<g>
			<g>
				<g>
					<polygon style="fill:#D85A2E;" points="226.715,165.038 223.551,165.038 223.551,136.754 206.214,126.789 206.214,62.881 
						209.378,62.881 209.378,124.958 226.715,134.923 					"/>
				</g>
				<g>
					<circle style="fill:#D85A2E;" cx="207.796" cy="57.353" r="8.944"/>
				</g>
			</g>
			<g>
				<g>
					<polygon style="fill:#D85A2E;" points="407.919,381.283 377.804,381.283 377.804,378.118 406.088,378.118 416.054,360.78 
						455.698,360.78 455.698,363.946 417.885,363.946 					"/>
				</g>
				<g>
					<circle style="fill:#D85A2E;" cx="461.225" cy="362.363" r="8.944"/>
				</g>
			</g>
			<g>
				<g>
					<polygon style="fill:#D85A2E;" points="423.123,429.676 383.479,429.676 373.514,412.339 345.229,412.339 345.229,409.173 
						375.345,409.173 385.31,426.511 423.123,426.511 					"/>
				</g>
				<g>
					<circle style="fill:#D85A2E;" cx="428.651" cy="428.094" r="8.944"/>
				</g>
			</g>
			<g>
				<g>
					<polygon style="fill:#D85A2E;" points="140.883,202.615 137.719,202.615 137.719,155.342 120.381,145.377 120.381,50.878 
						123.545,50.878 123.545,143.546 140.883,153.512 					"/>
				</g>
				<g>
					<circle style="fill:#D85A2E;" cx="121.963" cy="45.349" r="8.944"/>
				</g>
			</g>
			<g>
				<g>
					<polygon style="fill:#D85A2E;" points="285.975,165.038 282.81,165.038 282.81,134.923 300.147,124.958 300.147,62.881 
						303.313,62.881 303.313,126.789 285.975,136.754 					"/>
				</g>
				<g>
					<circle style="fill:#D85A2E;" cx="301.73" cy="57.353" r="8.944"/>
				</g>
			</g>
			<g>
				<path style="fill:#B6BA65;" d="M41.87,308.975c-1.53-2.174-3.058-4.641-2.776-7.285s3.39-5.003,5.627-3.566
					c-5.911-3.33-10.921-8.243-14.367-14.087c-1.387-2.353-2.551-5.159-1.708-7.757c0.842-2.598,4.629-4.149,6.413-2.081
					c-7.948-6.753-13.316-16.47-14.803-26.792c-0.675-4.688,0.259-10.699,4.781-12.108c3.584-1.116,7.197,1.425,10.01,3.91
					c4.489,3.966,8.746,8.196,12.739,12.661c0.417-3.105-0.557-6.75,1.563-9.056c1.814-1.973,5.145-1.772,7.377-0.288
					c2.232,1.483,3.627,3.906,4.942,6.241c3.792,6.732,7.583,13.465,11.375,20.197c1.012-2.972-0.545-7.24,2.206-8.753
					c2.628-1.445,5.312,1.786,6.566,4.511c7.437,16.157,13.905,32.767,19.179,49.754c1.695,5.459,3.282,11.084,2.978,16.792
					c-0.295,5.545-2.699,11.491-7.602,14.496c-3.873,2.374-9.738,2.283-13.937,0.667c-3.713-1.429-6.979-4.569-10.175-6.856
					c-5.53-3.957-10.745-8.353-15.585-13.13C51.235,321.077,46.27,315.225,41.87,308.975z"/>
			</g>
			<g>
				<path style="fill:#B6BA65;" d="M401.194,230.274c1.647-2.087,3.575-4.256,6.189-4.74s5.762,1.82,5.024,4.375
					c1.504-6.616,4.782-12.819,9.399-17.79c1.859-2.001,4.216-3.917,6.947-3.852c2.731,0.066,5.298,3.252,3.825,5.552
					c4.203-9.545,11.983-17.464,21.451-21.835c4.3-1.985,10.328-2.807,12.969,1.125c2.093,3.116,0.689,7.304-0.89,10.71
					c-2.519,5.435-5.358,10.722-8.497,15.824c3.095-0.487,6.31-2.461,9.125-1.087c2.409,1.175,3.167,4.425,2.382,6.988
					c-0.785,2.563-2.708,4.591-4.571,6.518c-5.37,5.556-10.74,11.112-16.11,16.667c3.138,0.121,6.783-2.589,9.019-0.384
					c2.135,2.106-0.195,5.601-2.448,7.581c-13.362,11.74-27.433,22.681-42.208,32.585c-4.748,3.183-9.686,6.31-15.243,7.648
					c-5.399,1.3-11.784,0.693-16.063-3.147c-3.381-3.034-4.968-8.682-4.618-13.167c0.31-3.966,2.387-7.993,3.666-11.709
					c2.214-6.429,4.938-12.683,8.134-18.684C392.27,242.704,396.46,236.276,401.194,230.274z"/>
			</g>
			<g>
				<path style="fill:#B6BA65;" d="M407.53,278.23c2.518-0.853,5.316-1.621,7.772-0.603c2.456,1.018,3.84,4.666,1.83,6.406
					c4.866-4.728,10.994-8.144,17.574-9.797c2.649-0.666,5.67-0.988,7.924,0.555c2.254,1.543,2.671,5.613,0.182,6.739
					c8.725-5.714,19.563-8.116,29.885-6.622c4.687,0.678,10.19,3.274,10.262,8.009c0.057,3.753-3.402,6.5-6.581,8.496
					c-5.074,3.185-10.335,6.071-15.747,8.639c2.861,1.278,6.632,1.374,8.244,4.06c1.379,2.298,0.244,5.436-1.81,7.157
					c-2.054,1.721-4.772,2.374-7.384,2.975c-7.53,1.733-15.06,3.466-22.59,5.199c2.565,1.811,7.099,1.525,7.772,4.591
					c0.643,2.93-3.215,4.591-6.183,5.023c-17.601,2.565-35.362,4.072-53.146,4.327c-5.715,0.082-11.56,0.014-16.949-1.892
					c-5.236-1.851-10.259-5.839-11.755-11.391c-1.182-4.386,0.564-9.986,3.302-13.557c2.421-3.157,6.356-5.402,9.454-7.821
					c5.359-4.185,11.051-7.945,17.001-11.236C393.275,283.791,400.291,280.683,407.53,278.23z"/>
			</g>
			<g>
				<path style="fill:#B6BA65;" d="M62.514,255.857c-0.612-2.587-1.114-5.445,0.131-7.795c1.245-2.349,5.007-3.384,6.55-1.219
					c-4.249-5.289-7.073-11.712-8.099-18.418c-0.413-2.7-0.45-5.738,1.298-7.836s5.84-2.131,6.727,0.453
					c-4.867-9.224-6.238-20.24-3.78-30.375c1.116-4.603,4.218-9.836,8.939-9.462c3.742,0.296,6.151,3.999,7.839,7.351
					c2.693,5.351,5.071,10.86,7.119,16.49c1.541-2.728,1.992-6.473,4.818-7.826c2.417-1.157,5.435,0.268,6.955,2.475
					c1.52,2.207,1.914,4.975,2.267,7.631c1.017,7.66,2.033,15.319,3.05,22.979c2.044-2.383,2.186-6.924,5.303-7.305
					c2.977-0.364,4.268,3.633,4.419,6.629c0.897,17.764,0.726,35.588-0.695,53.318c-0.456,5.698-1.075,11.51-3.479,16.695
					c-2.336,5.038-6.778,9.664-12.447,10.63c-4.478,0.764-9.889-1.502-13.186-4.563c-2.915-2.707-4.78-6.837-6.896-10.148
					c-3.662-5.729-6.869-11.749-9.586-17.983C66.708,270.573,64.275,263.295,62.514,255.857z"/>
			</g>
			<g>
				<g>
					<g>
						<path style="fill:#D85A2E;" d="M379.583,301.685c0,80.332-47.685,145.836-127.53,147.855
							c-1.265,0.032-18.955-0.098-20.228-0.098c-81.604,0-147.758-66.153-147.758-147.758s66.153-147.758,147.758-147.758
							c1.703,0,21.247-0.155,22.937-0.097C334.01,156.513,379.583,221.785,379.583,301.685z"/>
					</g>
					<g>
						<g>
							<g>
								<g>
									<circle style="fill:#F7A848;" cx="254.763" cy="301.685" r="147.855"/>
								</g>
								<g>
									<path style="fill:#FFC466;" d="M254.762,433.686c-72.785,0-132-59.215-132-132s59.215-132.001,132-132.001
										S386.764,228.9,386.764,301.686S327.548,433.686,254.762,433.686z M254.762,173.507
										c-70.678,0-128.178,57.501-128.178,128.179s57.501,128.178,128.178,128.178c70.678,0,128.179-57.5,128.179-128.178
										S325.441,173.507,254.762,173.507z"/>
								</g>
							</g>
							<g>
								<path style="fill:#FFC466;" d="M318.068,311.586c-7.377-4.918-15.663-7.83-24.851-8.734v-1.942
									c4.529-0.905,9.222-2.687,14.076-5.34c4.854-2.653,9.091-6.602,12.717-11.843c3.621-5.241,5.435-11.68,5.435-19.319
									c0-12.295-4.532-21.744-13.59-28.346c-9.063-6.598-21.681-9.901-37.859-9.901h-7.119v-15.787h-9.786v15.787h-8.141v-15.787
									h-16.608v15.787h-47.461v31.842h9.707v87.367h-9.707v31.839h47.461v15.787h16.608v-15.787h8.141v15.787h9.786v-15.787h7.119
									c16.307,0,29.574-3.136,39.799-9.415c10.224-6.279,15.338-16.214,15.338-29.805
									C329.134,325.307,325.445,316.508,318.068,311.586z M259.435,258.004c3.753,0,6.568,1.003,8.445,3.007
									c1.876,2.01,2.816,5.146,2.816,9.418v6.989c0,4.272-0.94,7.411-2.816,9.415c-1.878,2.01-4.692,3.01-8.445,3.01H248.95
									v-31.839H259.435z M272.055,332.943c0,4.272-0.94,7.411-2.814,9.418c-1.879,2.007-4.694,3.01-8.447,3.01H248.95v-33.396
									h11.843c3.753,0,6.568,1.007,8.447,3.01c1.874,2.01,2.814,5.146,2.814,9.418V332.943z"/>
							</g>
						</g>
						<g style="opacity:0.24;">
							<path style="fill:#FFE97D;" d="M373.047,212.964L115.515,351.492c12.406,34.673,37.389,63.363,69.459,80.566l217.064-117.324
								c0.376-4.301,0.58-8.651,0.58-13.049C402.618,268.395,391.613,237.677,373.047,212.964z"/>
						</g>
						<g style="opacity:0.24;">
							<path style="fill:#FFE97D;" d="M305.897,162.925l-191.623,92.577c-4.774,14.532-7.367,30.054-7.367,46.183
								c0,3.224,0.116,6.42,0.319,9.592L347.356,186.42C335.01,176.49,321.034,168.508,305.897,162.925z"/>
						</g>
					</g>
				</g>
				<g>
					<g>
						<path style="fill:#D85A2E;" d="M73.397,363.707v5.603H69.51v14.443v5.603h17.389v2.779
							c16.14,8.319,64.467,33.315,77.103,40.853c8.849,5.279,22.561,9.377,32.51,11.888v-0.984v-14.443h-9.789v-5.603v-14.443
							h14.678v-5.603v-14.443h-17.389v-5.603V369.31h3.888v-5.603v-14.443h-10.966v-5.5v-14.443h-24.206h-14.779h-7.779h-5.756
							h-14.52h-9.075h-2.826H71.519h-9.087v14.443v5.603h10.966V363.707z"/>
					</g>
					<g>
						<g>
							<g>
								<rect x="59.29" y="429.5" style="fill:#FFC466;" width="114.502" height="20.046"/>
							</g>
							<g>
								<rect x="59.29" y="443.943" style="fill:#F7A848;" width="114.502" height="5.603"/>
							</g>
							<g>
								<rect x="134.806" y="429.5" style="fill:#F7A848;" width="14.779" height="18.177"/>
							</g>
							<g>
								<rect x="121.271" y="429.5" style="fill:#F7A848;" width="5.756" height="18.177"/>
							</g>
							<g>
								<rect x="68.377" y="429.5" style="fill:#FFD79C;" width="26.473" height="14.443"/>
							</g>
							<g>
								<rect x="97.676" y="429.5" style="fill:#FFD79C;" width="9.075" height="14.443"/>
							</g>
						</g>
						<g>
							<g>
								<rect x="49.5" y="409.454" style="fill:#FFC466;" width="114.502" height="20.046"/>
							</g>
							<g>
								<rect x="49.5" y="423.897" style="fill:#F7A848;" width="114.502" height="5.603"/>
							</g>
							<g>
								<rect x="125.017" y="409.454" style="fill:#F7A848;" width="14.779" height="18.177"/>
							</g>
							<g>
								<rect x="111.482" y="409.454" style="fill:#F7A848;" width="5.756" height="18.177"/>
							</g>
							<g>
								<rect x="58.587" y="409.454" style="fill:#FFD79C;" width="26.473" height="14.443"/>
							</g>
							<g>
								<rect x="87.887" y="409.454" style="fill:#FFD79C;" width="9.075" height="14.443"/>
							</g>
						</g>
						<g>
							<g>
								<rect x="64.178" y="389.407" style="fill:#FFC466;" width="114.502" height="20.046"/>
							</g>
							<g>
								<rect x="64.178" y="403.851" style="fill:#F7A848;" width="114.502" height="5.603"/>
							</g>
							<g>
								<rect x="139.695" y="389.407" style="fill:#F7A848;" width="14.779" height="18.177"/>
							</g>
							<g>
								<rect x="126.16" y="389.407" style="fill:#F7A848;" width="5.756" height="18.177"/>
							</g>
							<g>
								<rect x="73.265" y="389.407" style="fill:#FFD79C;" width="26.473" height="14.443"/>
							</g>
							<g>
								<rect x="102.565" y="389.407" style="fill:#FFD79C;" width="9.075" height="14.443"/>
							</g>
						</g>
						<g>
							<g>
								<rect x="46.789" y="369.361" style="fill:#FFC466;" width="114.502" height="20.046"/>
							</g>
							<g>
								<rect x="46.789" y="383.805" style="fill:#F7A848;" width="114.502" height="5.603"/>
							</g>
							<g>
								<rect x="122.305" y="369.361" style="fill:#F7A848;" width="14.779" height="18.177"/>
							</g>
							<g>
								<rect x="108.771" y="369.361" style="fill:#F7A848;" width="5.756" height="18.177"/>
							</g>
							<g>
								<rect x="55.876" y="369.361" style="fill:#FFD79C;" width="26.473" height="14.443"/>
							</g>
							<g>
								<rect x="85.175" y="369.361" style="fill:#FFD79C;" width="9.075" height="14.443"/>
							</g>
						</g>
						<g>
							<g>
								<rect x="50.677" y="349.315" style="fill:#FFC466;" width="114.502" height="20.046"/>
							</g>
							<g>
								<rect x="50.677" y="363.759" style="fill:#F7A848;" width="114.502" height="5.603"/>
							</g>
							<g>
								<rect x="126.193" y="349.315" style="fill:#F7A848;" width="14.779" height="18.177"/>
							</g>
							<g>
								<rect x="112.658" y="349.315" style="fill:#F7A848;" width="5.756" height="18.177"/>
							</g>
							<g>
								<rect x="59.763" y="349.315" style="fill:#FFD79C;" width="26.473" height="14.443"/>
							</g>
							<g>
								<rect x="89.063" y="349.315" style="fill:#FFD79C;" width="9.075" height="14.443"/>
							</g>
						</g>
						<g>
							<g>
								<rect x="39.711" y="329.372" style="fill:#FFC466;" width="114.502" height="20.046"/>
							</g>
							<g>
								<rect x="39.711" y="343.816" style="fill:#F7A848;" width="114.502" height="5.603"/>
							</g>
							<g>
								<rect x="115.228" y="329.372" style="fill:#F7A848;" width="14.779" height="18.177"/>
							</g>
							<g>
								<rect x="101.693" y="329.372" style="fill:#F7A848;" width="5.756" height="18.177"/>
							</g>
							<g>
								<rect x="48.798" y="329.372" style="fill:#FFD79C;" width="26.473" height="14.443"/>
							</g>
							<g>
								<rect x="78.097" y="329.372" style="fill:#FFD79C;" width="9.075" height="14.443"/>
							</g>
						</g>
					</g>
				</g>
			</g>
			<g>
				<g>
					<path style="fill:#4F2830;" d="M385.501,94.014c0.788,2.489-1.1,5.111-0.788,7.703c0.139,1.16,0.712,2.226,0.93,3.373
						c0.513,2.708-1.007,5.383-2.773,7.5c2.779-0.968,5.145-3.067,6.438-5.71c0.916-1.872,1.301-3.966,2.2-5.846
						c1.223-2.559,3.323-4.579,4.926-6.919s2.719-5.367,1.644-7.992c-0.733-1.789-2.359-3.072-3.218-4.804
						c-0.441-0.89-0.665-1.869-1.02-2.797c-1.959-5.116-8.388-7.995-13.509-6.048c2.875-5.357,0.274-12.631-4.721-16.095
						c-4.996-3.464-12.125-3.126-17.155,0.288c-5.03,3.414-7.931,9.51-8.09,15.587c-0.102,3.881,0.806,7.841-0.149,11.604
						c-0.266,1.049-0.714,2.113-1.578,2.765c-1.17,0.882-2.892,0.774-4.134-0.003c-1.242-0.777-2.054-2.106-2.523-3.494
						c-1.895,3.251-3.621,6.985-3.077,10.709c0.545,3.724,2.618,7.259,5.777,9.306c3.024,1.96,6.762,2.462,10.365,2.514
						c2.658,0.038,5.371-0.153,7.844-1.128s3.063-2.735,3.984-5.229c0.958-2.593,0.691-6.011,3.027-7.488
						c0.741-0.469,1.408,1.135,2.23,0.829c1.458-0.542,4.596-3.415,5.464-4.707c1.087-1.618,1.727-3.822,3.566-4.467
						c1.971-0.691,4.049,0.973,4.945,2.859C387.277,88.789,386.793,91.61,385.501,94.014z"/>
				</g>
				<g>
					<g>
						<path style="fill:#281419;" d="M351.236,282.813c0,0-7.667,7.591-8.401,8.843c-0.734,1.252,19.258,19.17,19.258,19.17
							s3.811-5.264-3.437-17.245C351.408,281.598,351.236,282.813,351.236,282.813z"/>
					</g>
					<g>
						<path style="fill:#281419;" d="M402.945,286.814c0,0-7.667,7.591-8.401,8.843c-0.734,1.252,19.258,19.17,19.258,19.17
							s3.811-5.264-3.437-17.245C403.118,285.6,402.945,286.814,402.945,286.814z"/>
					</g>
					<g>
						<path style="fill:#4F2830;" d="M328.333,152.158c-3.789,6.032-7.734,12.746-6.71,19.796
							c1.138,7.833,7.977,13.393,14.312,18.139c4.9,3.671,9.801,7.343,14.701,11.014c2.022,1.515,4.109,3.104,5.292,5.337
							c1.183,2.233,1.182,5.307-0.692,7.003c-1.271,3.085,6.214,1.18,7.249,4.109c1.034,2.929,0.414,6.156-0.263,9.188
							c-4.44,19.888-10.9,39.324-19.248,57.913c3.996,3.7,9.794,5.589,15.166,6.48c10.385-20.353,20.325-42.452,26.036-64.576
							c1.556-6.027,2.94-12.283,1.98-18.433c-2.131-13.645-14.754-22.769-22.334-34.313c-4.16-6.335-6.924-13.654-12.109-19.182
							s-14.135-8.74-20.372-4.435c-0.758,0.523-1.662,1.175-2.509,0.811S327.686,151.502,328.333,152.158z"/>
					</g>
					<g>
						<path style="fill:#4F2830;" d="M379.514,173.979c4.348,5.195,8.695,10.39,13.043,15.585c3.879,4.636,7.809,9.35,10.269,14.871
							c3.415,7.664,3.753,16.292,4.037,24.678c0.728,21.501,1.456,43.002,2.184,64.502c-4.547,0.347-9.443-0.027-13.877-1.093
							c-0.531-0.128-1.179-0.738-0.739-1.061c-1.31-12.457-2.255-24.961-3.566-37.418c-0.641-6.095-1.299-12.263-3.421-18.012
							c-2.125-5.758-5.638-10.879-9.039-15.988c-10.392-15.615-20.345-32.689-20.848-51.439c-0.106-3.943,0.302-8.141,2.672-11.294
							c2.369-3.154,7.261-4.67,10.388-2.265c1.77,1.361,2.596,3.588,3.338,5.694C375.36,164.73,376.798,170.734,379.514,173.979z"/>
					</g>
					<g>
						<g>
							<path style="fill:#82505C;" d="M384.39,229.166c2.516-7.913,4.311-16.436,2.005-24.626
								c-2.114-7.509-7.023-13.649-11.969-19.5c-3.017-3.569-6.548-8.118-5.083-13.076c0.153-0.516-0.653-0.737-0.805-0.222
								c-2.23,7.549,5.648,13.919,9.686,19.239c5.141,6.774,8.734,14.342,8.391,23.018c-0.202,5.107-1.488,10.096-3.03,14.945
								C383.421,229.458,384.227,229.678,384.39,229.166L384.39,229.166z"/>
						</g>
					</g>
					<g>
						<g>
							<path style="fill:#82505C;" d="M372.453,177.139c0.933-0.697,1.383-1.951,1.013-3.075c-0.068-0.207-0.292-0.363-0.514-0.292
								c-0.207,0.067-0.365,0.291-0.292,0.514c0.035,0.106,0.061,0.212,0.081,0.321c0.022,0.114-0.002-0.05,0.003,0.016
								c0.003,0.031,0.006,0.061,0.009,0.092c0.004,0.055,0.006,0.11,0.006,0.165c0,0.055-0.002,0.11-0.006,0.166
								c-0.002,0.031-0.006,0.061-0.008,0.092c-0.004,0.064,0.012-0.065,0-0.001c-0.022,0.115-0.044,0.229-0.079,0.341
								c-0.016,0.053-0.034,0.105-0.054,0.157c-0.003,0.008-0.032,0.078-0.014,0.036c0.021-0.049-0.02,0.042-0.024,0.051
								c-0.048,0.1-0.103,0.196-0.164,0.288c-0.017,0.026-0.035,0.05-0.053,0.076c-0.039,0.055,0.061-0.072-0.013,0.018
								c-0.035,0.043-0.071,0.084-0.109,0.124c-0.038,0.04-0.077,0.079-0.118,0.116c-0.018,0.017-0.037,0.033-0.055,0.049
								c-0.006,0.005-0.101,0.078-0.031,0.026c-0.174,0.13-0.281,0.367-0.15,0.571C371.993,177.162,372.266,177.279,372.453,177.139
								L372.453,177.139z"/>
						</g>
					</g>
					<g>
						<g>
							<path style="fill:#82505C;" d="M364.179,213.313c0.935-0.523,2.112-0.523,3.048-0.001c0.47,0.262,0.891-0.459,0.421-0.721
								c-1.197-0.668-2.694-0.668-3.891,0.001C363.288,212.854,363.709,213.576,364.179,213.313L364.179,213.313z"/>
						</g>
					</g>
					<g>
						<g>
							<path style="fill:#82505C;" d="M363.205,211.622c1.447-0.313,2.828-0.926,4.028-1.793c0.183-0.132,0.271-0.363,0.15-0.571
								c-0.105-0.18-0.387-0.283-0.571-0.15c-1.149,0.83-2.444,1.409-3.829,1.708c-0.22,0.048-0.349,0.305-0.292,0.514
								C362.754,211.558,362.984,211.67,363.205,211.622L363.205,211.622z"/>
						</g>
					</g>
					<g>
						<g>
							<path style="fill:#82505C;" d="M389.072,225.413c0.083-0.08,0.168-0.157,0.256-0.231c0.022-0.018,0.044-0.037,0.067-0.055
								c0.107-0.087-0.028,0.02,0.035-0.027c0.046-0.035,0.093-0.068,0.14-0.101c0.195-0.135,0.4-0.255,0.614-0.359
								c0.052-0.025,0.104-0.049,0.157-0.073c0.016-0.007,0.06-0.025,0.019-0.009c0.027-0.011,0.053-0.022,0.08-0.032
								c0.107-0.042,0.216-0.079,0.326-0.113c0.117-0.036,0.235-0.066,0.355-0.093c0.056-0.012,0.113-0.023,0.169-0.034
								c0.028-0.005,0.057-0.01,0.085-0.014c0.012-0.002,0.105-0.015,0.038-0.006c0.216-0.028,0.429-0.172,0.418-0.418
								c-0.009-0.202-0.186-0.448-0.418-0.418c-1.104,0.143-2.127,0.614-2.931,1.391c-0.157,0.152-0.164,0.44,0,0.591
								C388.65,225.568,388.904,225.575,389.072,225.413L389.072,225.413z"/>
						</g>
					</g>
					<g>
						<g>
							<path style="fill:#82505C;" d="M390.345,221.631c1.463-0.853,2.927-1.705,4.39-2.558c0.464-0.27,0.044-0.993-0.422-0.721
								c-1.463,0.853-2.927,1.705-4.39,2.558C389.459,221.18,389.879,221.902,390.345,221.631L390.345,221.631z"/>
						</g>
					</g>
				</g>
				<g>
					<path style="fill:#C7D9FF;" d="M344.143,107.95c-6.875,5.696-11.554,13.585-15.512,21.588
						c-3.866,7.817-7.022,17.708-1.886,24.756c1.975,2.709,4.919,4.535,7.889,6.09c8.766,4.592,18.446,7.429,28.303,8.297
						c3.155,0.278,6.438,0.337,9.371-0.859c2.933-1.197,5.438-3.934,5.47-7.102c0.013-1.225-0.332-2.474-0.018-3.657
						c0.511-1.925,2.562-3.032,3.453-4.813c0.813-1.625,0.563-3.61,1.303-5.269c0.844-1.893,2.799-3.016,4.072-4.651
						c2.598-3.337,1.956-8.082,1.093-12.223c-1.228-5.897-2.671-11.831-5.516-17.14c-1.368-2.553-3.08-4.938-5.139-6.98
						c-1.839-1.825-4.541-4.225-7.173-4.734c-1.117-0.216-2.325-0.159-3.467-0.333c-1.499-0.228-3.021-0.297-4.535-0.225
						c-3.032,0.145-6.024,0.855-8.841,1.974C349.801,103.944,346.801,105.748,344.143,107.95z"/>
				</g>
				<g>
					<g>
						<g>
							<g>
								<path style="fill:#F9AC7C;" d="M392.547,88.965c-1.832,6.543-8.341,13.667-13.551,11.438
									c-4.298-1.839-6.532-6.286-5.086-12.92c2.246-10.301,8.693-11.62,13.184-10.363
									C391.586,78.378,394.379,82.423,392.547,88.965z"/>
							</g>
							<g>
								<path style="fill:#F9AC7C;" d="M375.934,87.124c-0.605,2.162-1.783,4.345-3.324,3.913c-1.541-0.432-2.863-3.314-2.258-5.476
									c0.606-2.162,2.346-3.566,3.887-3.134C375.781,82.858,376.54,84.961,375.934,87.124z"/>
							</g>
						</g>
						<g>
							<g>
								<path style="fill:#4F2830;" d="M388.178,86.982c-0.49,0.688-0.902,1.424-1.23,2.203c-0.315,0.748-0.503,1.518-0.715,2.297
									c-0.154,0.566-0.35,1.261-0.86,1.614c-0.741,0.513-1.602-0.111-2.188-0.573c-0.294-0.232-0.714,0.182-0.416,0.416
									c0.685,0.539,1.533,1.144,2.454,0.872c0.689-0.203,1.091-0.812,1.342-1.447c0.307-0.777,0.428-1.613,0.708-2.4
									c0.34-0.958,0.824-1.858,1.413-2.686C388.907,86.97,388.396,86.676,388.178,86.982L388.178,86.982z"/>
							</g>
						</g>
						<g>
							<path style="fill:#FFFFFF;" d="M381.449,90.224c-0.108,0-0.219-0.004-0.328-0.014c-2.187-0.178-3.822-2.102-3.644-4.288
								c0.179-2.188,2.107-3.829,4.289-3.643c1.06,0.086,2.022,0.579,2.71,1.389c0.689,0.81,1.021,1.84,0.934,2.899l0,0
								c-0.087,1.06-0.58,2.022-1.39,2.71C383.293,89.894,382.391,90.224,381.449,90.224z M381.44,82.854
								c-1.745,0-3.233,1.346-3.377,3.116c-0.152,1.863,1.242,3.502,3.105,3.654c0.908,0.074,1.78-0.21,2.47-0.796
								c0.69-0.586,1.11-1.406,1.183-2.309l0,0c0.074-0.902-0.208-1.779-0.795-2.47c-0.586-0.69-1.406-1.11-2.309-1.184
								C381.624,82.858,381.532,82.854,381.44,82.854z"/>
						</g>
						<g>
							<path style="fill:#FFFFFF;" d="M392.249,94.798c-0.109,0-0.219-0.004-0.329-0.014c-1.06-0.086-2.023-0.579-2.711-1.389
								c-0.688-0.81-1.019-1.84-0.934-2.899c0.178-2.186,2.078-3.836,4.289-3.643c2.186,0.178,3.821,2.102,3.643,4.288
								c-0.087,1.06-0.58,2.022-1.39,2.71C394.093,94.468,393.19,94.798,392.249,94.798z M392.239,87.428
								c-1.746,0-3.234,1.346-3.377,3.116c-0.074,0.903,0.209,1.78,0.795,2.47c0.586,0.69,1.406,1.11,2.31,1.184
								c0.905,0.07,1.78-0.21,2.47-0.796c0.69-0.586,1.11-1.406,1.183-2.309c0.152-1.863-1.24-3.502-3.104-3.654
								C392.423,87.432,392.331,87.428,392.239,87.428z"/>
						</g>
						<g>
							<path style="fill:#FFFFFF;" d="M388.348,89.768c-0.354-1.625-3.585-1.56-3.612-1.561l-0.015-0.588
								c0.15-0.003,3.746-0.072,4.201,2.024L388.348,89.768z"/>
						</g>
						<g>
							<path style="fill:#FFFFFF;" d="M378.077,85.045c-0.087,0-0.173-0.038-0.231-0.112l-3.422-4.335
								c-0.503-0.635-1.311-0.947-2.106-0.822l-1.518,0.243c-0.171,0.028-0.312-0.084-0.337-0.244
								c-0.026-0.161,0.083-0.311,0.244-0.337l1.518-0.243c1.009-0.166,2.028,0.237,2.661,1.038l3.422,4.335
								c0.101,0.128,0.079,0.313-0.049,0.413C378.205,85.024,378.141,85.045,378.077,85.045z"/>
						</g>
					</g>
					<g>
						<path style="fill:#F9AC7C;" d="M373.144,90.446l-6.273,13.558c0,0,2.229,7.23,8.892,6.834l3.73-13.465L373.144,90.446z"/>
					</g>
					<g>
						<g>
							<path style="fill:#4F2830;" d="M379.506,100.674c-3.17-1.183-5.131-4.19-5.707-7.43c-0.066-0.372-0.634-0.215-0.568,0.156
								c0.615,3.456,2.758,6.587,6.118,7.841C379.705,101.374,379.859,100.805,379.506,100.674L379.506,100.674z"/>
						</g>
					</g>
				</g>
				<g>
					<path style="fill:#F9AC7C;" d="M362.053,176.373c0.031-1.183-1.196-2.066-2.373-2.179c-1.178-0.113-2.331,0.307-3.488,0.555
						c-1.642,0.352-3.393,0.355-4.966-0.234s-2.946-1.818-3.489-3.407c-1.503,1.406-3.161,3.004-4.316,4.707
						c2.623,3.563,5.636,7.766,10.056,7.955C357.567,183.944,361.945,180.465,362.053,176.373z"/>
				</g>
				<g>
					<path style="fill:#C7D9FF;" d="M354.473,102.131c-10.963,4.015-21.216,11.259-30.234,18.674
						c-3.257,2.678-6.467,5.727-7.842,9.713c-1.385,4.015-0.715,8.437,0.331,12.553c3.663,14.412,11.88,27.631,23.183,37.294
						c3.439-2.298,6.909-5.148,9.932-7.97c-4.929-5.858-8.604-14.477-7.162-21.996c1.134-5.915,5.181-10.772,8.846-15.552
						s7.226-10.205,7.101-16.227c-0.075-3.637-1.502-7.093-2.907-10.448C354.806,105.988,355.388,104.316,354.473,102.131z"/>
				</g>
				<g>
					<g>
						<path style="fill:#7F9DD3;" d="M359.733,104.521c-1.402,7.021-5.628,12.906-10.587,17.907
							c-2.421,2.442-5.008,4.75-7.703,6.886c-3.084,2.444-6.557,4.607-10.602,4.729c-0.464,0.014-0.466,0.737,0,0.723
							c3.805-0.114,7.139-1.925,10.119-4.17c2.957-2.227,5.757-4.728,8.38-7.339c5.175-5.152,9.634-11.256,11.089-18.543
							C360.521,104.259,359.824,104.064,359.733,104.521L359.733,104.521z"/>
					</g>
				</g>
				<g>
					<g>
						<path style="fill:#7F9DD3;" d="M333.628,134.043c0.56,1.998-0.504,4.234-2.381,5.098c-0.422,0.194-0.055,0.818,0.365,0.624
							c2.165-0.996,3.353-3.629,2.713-5.914C334.2,133.404,333.502,133.594,333.628,134.043L333.628,134.043z"/>
					</g>
				</g>
				<g>
					<g>
						<path style="fill:#7F9DD3;" d="M333.033,137.829c3.353,9.353,7.199,18.52,11.524,27.465c0.202,0.419,0.826,0.053,0.624-0.365
							c-4.297-8.889-8.119-17.998-11.451-27.292C333.574,137.202,332.875,137.389,333.033,137.829L333.033,137.829z"/>
					</g>
				</g>
				<g>
					<g>
						<polygon style="fill:#281419;" points="405.001,188.401 353.62,181.562 375.554,149.236 426.935,156.075 						"/>
					</g>
					<g>
						<path style="fill:#281419;" d="M404.437,192.979l-61.916-8.241l0,0c0.336-2.525,2.655-4.299,5.18-3.963l57.344,7.633
							L404.437,192.979z"/>
					</g>
				</g>
			</g>
			<g>
				<g>
					<path style="fill:#C7D9FF;" d="M106.908,138.453v-9.013l-9.013-2.11v0.3c-0.098-0.417-0.206-0.83-0.324-1.239l0.135,0.234
						l6.75-6.334l-4.506-7.805l-8.787,2.657c-0.186-0.197-0.369-0.396-0.561-0.588l2.651-8.766l-7.805-4.506l-6.057,6.456
						c-0.356-0.112-0.716-0.213-1.078-0.31L76.3,98.833h-9.013l-1.938,8.277c-0.477,0.103-0.95,0.22-1.417,0.348l-5.793-6.174
						l-7.805,4.506l2.372,7.844c-0.43,0.391-0.843,0.8-1.247,1.218l-7.822-2.365l-4.506,7.805l5.825,5.465
						c-0.191,0.611-0.355,1.235-0.504,1.863l-7.772,1.819v9.013l7.772,1.819c0.149,0.629,0.313,1.252,0.504,1.864l-5.825,5.465
						l4.506,7.805l7.822-2.365c0.404,0.417,0.817,0.826,1.247,1.217l-2.372,7.844l7.805,4.506l5.793-6.174
						c0.468,0.128,0.94,0.245,1.417,0.348l1.938,8.277H76.3l2.013-8.597c0.362-0.098,0.722-0.198,1.078-0.31l6.057,6.456
						l7.805-4.506l-2.651-8.766c0.191-0.192,0.375-0.391,0.56-0.588l8.787,2.657l4.506-7.805l-6.75-6.333l-0.135,0.234
						c0.117-0.409,0.225-0.822,0.324-1.238v0.3L106.908,138.453z M93.362,133.947c0,12.235-9.954,22.189-22.189,22.189
						s-22.189-9.954-22.189-22.189s9.954-22.189,22.189-22.189S93.362,121.712,93.362,133.947z"/>
				</g>
				<g>
					<circle style="fill:#C7D9FF;" cx="71.794" cy="133.947" r="15.442"/>
				</g>
			</g>
			<g>
				<g>
					<path style="fill:#C7D9FF;" d="M178.292,124.028v-6.116l-6.116-1.432v0.204c-0.067-0.283-0.14-0.563-0.22-0.841l0.092,0.159
						l4.581-4.298l-3.058-5.297l-5.963,1.803c-0.126-0.134-0.251-0.269-0.38-0.399l1.799-5.949l-5.297-3.058l-4.111,4.381
						c-0.241-0.076-0.486-0.144-0.732-0.21l-1.366-5.834h-6.116l-1.315,5.617c-0.324,0.07-0.644,0.15-0.962,0.236l-3.931-4.19
						l-5.297,3.058l1.61,5.324c-0.292,0.265-0.572,0.543-0.846,0.826l-5.308-1.605l-3.058,5.297l3.953,3.709
						c-0.13,0.415-0.241,0.838-0.342,1.265l-5.274,1.235v6.116l5.274,1.235c0.101,0.427,0.212,0.85,0.342,1.265l-3.953,3.709
						l3.058,5.297l5.308-1.605c0.274,0.283,0.554,0.561,0.846,0.826l-1.61,5.324l5.297,3.058l3.931-4.19
						c0.318,0.087,0.638,0.166,0.962,0.236l1.315,5.617h6.116l1.366-5.834c0.245-0.066,0.49-0.135,0.731-0.21l4.111,4.381
						l5.297-3.058l-1.799-5.949c0.13-0.13,0.254-0.265,0.38-0.399l5.963,1.803l3.058-5.297l-4.581-4.298l-0.092,0.159
						c0.08-0.278,0.153-0.558,0.22-0.84v0.204L178.292,124.028z M169.099,120.97c0,8.303-6.755,15.058-15.059,15.058
						c-8.303,0-15.058-6.755-15.058-15.058s6.755-15.059,15.058-15.059C162.343,105.911,169.099,112.667,169.099,120.97z"/>
				</g>
				<g>
					<circle style="fill:#C7D9FF;" cx="154.462" cy="120.97" r="10.48"/>
				</g>
			</g>
		</g>
		<g>
			<path style="fill:#FFFFFF;" d="M324.065,396.465c-4.897-13.22-1.733-10.056-14.952-14.952
				c13.22-4.897,10.056-1.733,14.952-14.952c4.896,13.22,1.733,10.056,14.952,14.952
				C325.797,386.409,328.962,383.245,324.065,396.465z"/>
		</g>
		<g>
			<path style="fill:#FFFFFF;" d="M332.412,369.741c-3.407-9.197-1.205-6.996-10.403-10.403c9.197-3.407,6.996-1.206,10.403-10.403
				c3.407,9.197,1.206,6.996,10.403,10.403C333.617,362.745,335.819,360.544,332.412,369.741z"/>
		</g>
		<g>
			<path style="fill:#FFFFFF;" d="M130.818,393.953c-2.101-5.671-0.743-4.314-6.414-6.414c5.671-2.101,4.314-0.743,6.414-6.414
				c2.1,5.671,0.743,4.314,6.414,6.414C131.561,389.639,132.918,388.282,130.818,393.953z"/>
		</g>
		<g>
			<path style="fill:#FFFFFF;" d="M102.991,366.339c-3.166-8.547-1.12-6.501-9.667-9.667c8.547-3.166,6.501-1.12,9.667-9.667
				c3.166,8.547,1.12,6.501,9.667,9.667C104.111,359.838,106.157,357.792,102.991,366.339z"/>
		</g>
		<g>
			<path style="fill:#FFFFFF;" d="M201.401,210.261c-3.166-8.547-1.12-6.501-9.667-9.667c8.547-3.166,6.501-1.12,9.667-9.667
				c3.166,8.547,1.12,6.501,9.667,9.667C202.521,203.759,204.566,201.714,201.401,210.261z"/>
		</g>
		<g>
			<path style="fill:#FFFFFF;" d="M184.882,218.61c-2-5.399-0.708-4.107-6.107-6.107c5.399-2,4.107-0.708,6.107-6.107
				c2,5.399,0.708,4.107,6.107,6.107C185.589,214.503,186.882,213.21,184.882,218.61z"/>
		</g>
	</g>
</g>
</svg>
